:SAMPLES-PER-SECOND 30
:FULLY-SPECIFIED
:DEGREES
404
root  54.5169 32.6746 -18.0926 154.581 -71.9726 -176.806
RightUpLeg  -21.969 -5.21581 -17.3432
RightLeg  27.2859 10.6958 5.79083
RightFoot  10.5423 -4.31686 22.4397
RightToes  0.000482159 0.542163 -0.142577
Spine  42.8167 -4.47815 17.8301
Spine1  -2.9456 5.09195 -15.0084
HEad  -46.0021 9.57369 -13.1527
LeftShoulder1  10.2601 -15.2823 -47.6737
LeftArm  -36.344 7.51487 -5.49911
LeftForeArm  59.0961 -68.8255 -22.7381
LeftHand  -0.25398 0.0180481 5.50724
RightShoulder  7.77101 13.6415 39.2161
RightArm  15.219 29.6036 37.2006
RightForeArm  -5.29035 24.1606 5.43011
RightHand  -4.72484 13.5964 -28.7581
LeftUpLeg  -10.0367 2.72938 5.06048
LeftLeg  73.2408 5.45017 21.0364
LeftFoot  -27.5777 -0.528712 -4.95445
LeftToes  1.06246e-005 4.65855e-005 -8.18502e-006
405
root  55.6531 33.3222 -17.2897 157.269 -72.2792 -177.719
RightUpLeg  -22.0528 -3.22417 -17.6565
RightLeg  24.6773 3.20398 1.26388
RightFoot  8.5749 -3.31534 19.0333
RightToes  0.000482159 0.542163 -0.142577
Spine  41.3862 -2.45181 14.1699
Spine1  -4.91143 5.65948 -18.5022
HEad  -43.8345 8.18025 -7.81454
LeftShoulder1  9.76879 -15.2799 -45.3328
LeftArm  -37.122 1.56942 -5.65817
LeftForeArm  79.8089 -77.8118 -43.9713
LeftHand  -0.25398 0.0180481 5.50724
RightShoulder  7.92762 14.1168 38.8896
RightArm  13.9718 25.9467 42.5789
RightForeArm  -1.37454 27.5317 6.02156
RightHand  -4.80334 13.9045 -28.763
LeftUpLeg  -10.7642 4.04529 4.32882
LeftLeg  66.7496 6.64841 17.2332
LeftFoot  -29.5812 -0.659704 -5.23048
LeftToes  1.06246e-005 4.65855e-005 -8.18502e-006
406
root  57.0846 33.8808 -16.4505 153.418 -74.0287 -172.186
RightUpLeg  -23.5555 -2.58875 -15.5939
RightLeg  32.7107 -2.30463 -1.85043
RightFoot  4.54988 -2.19698 15.8583
RightToes  0.000482159 0.542163 -0.142577
Spine  41.8197 -1.49112 11.5514
Spine1  -7.09179 5.56861 -20.2987
HEad  -43.1989 6.14876 -3.49568
LeftShoulder1  9.32502 -15.2869 -43.1546
LeftArm  -34.516 -5.78082 -8.83863
LeftForeArm  128.004 -81.5414 -91.8724
LeftHand  -0.25398 0.0180481 5.50724
RightShoulder  8.12888 14.4377 39.1915
RightArm  9.88466 24.1135 44.6429
RightForeArm  -0.210644 33.5237 7.47822
RightHand  -5.07028 14.2579 -29.7568
LeftUpLeg  -14.8573 3.57645 4.31479
LeftLeg  64.1116 6.43639 14.8056
LeftFoot  -26.3715 -0.125928 -2.03221
LeftToes  1.06246e-005 4.65855e-005 -8.18502e-006
407
root  58.5878 34.449 -15.6106 142.543 -77.0861 -160.033
RightUpLeg  -24.0421 -6.54283 -11.413
RightLeg  46.8424 -3.92759 -4.83896
RightFoot  -0.839433 -1.22618 13.1412
RightToes  0.000482159 0.542163 -0.142577
Spine  42.404 -1.00119 8.99272
Spine1  -7.68291 4.9212 -19.526
HEad  -42.9224 4.38523 -0.83887
LeftShoulder1  9.07052 -15.2659 -41.9492
LeftArm  -28.0196 -11.7155 -14.7375
LeftForeArm  166.421 -79.3283 -128.764
LeftHand  -0.25398 0.0180481 5.50724
RightShoulder  8.1951 14.4484 39.5174
RightArm  6.49998 23.9807 45.073
RightForeArm  -1.19327 39.3364 9.25096
RightHand  -5.13176 14.0269 -30.4332
LeftUpLeg  -18.7345 1.17427 4.29002
LeftLeg  61.2063 7.28373 14.6298
LeftFoot  -20.5427 0.291572 2.08497
LeftToes  1.06246e-005 4.65855e-005 -8.18502e-006
408
root  59.9737 35.0023 -14.8849 123.462 -80.5004 -139.943
RightUpLeg  -22.4127 -12.4798 -6.97358
RightLeg  60.4249 -3.80152 -7.61844
RightFoot  -6.52202 -0.523037 11.6989
RightToes  0.000482159 0.542163 -0.142577
Spine  42.6276 -0.442901 5.88536
Spine1  -7.24017 4.23026 -18.2773
HEad  -41.7602 3.1991 0.105389
LeftShoulder1  9.1296 -15.338 -42.067
LeftArm  -18.2388 -13.9424 -20.9837
LeftForeArm  179.223 -77.3215 -139.653
LeftHand  -0.25398 0.0180481 5.50724
RightShoulder  8.04879 14.1464 39.4741
RightArm  3.40462 23.6142 44.8469
RightForeArm  1.11189 44.5949 10.9761
RightHand  -4.79136 12.9591 -30.0811
LeftUpLeg  -20.7167 -2.19417 3.56044
LeftLeg  56.144 8.11268 13.3233
LeftFoot  -15.2861 0.270631 5.04905
LeftToes  1.06246e-005 4.65855e-005 -8.18502e-006
409
root  61.1882 35.5591 -14.2312 91.0067 -82.525 -106.006
RightUpLeg  -18.8327 -18.1372 -2.67501
RightLeg  68.136 -2.04622 -6.27982
RightFoot  -10.108 -0.225432 14.3978
RightToes  0.000482159 0.542163 -0.142577
Spine  42.4907 0.0453494 3.59566
Spine1  -6.32796 3.96785 -18.3397
HEad  -39.9559 1.84579 0.089739
LeftShoulder1  9.44161 -15.4848 -43.2417
LeftArm  -7.90988 -12.8637 -25.1539
LeftForeArm  179.423 -77.8473 -137.664
LeftHand  -0.25398 0.0180481 5.50724
RightShoulder  7.91901 13.7419 39.7795
RightArm  0.0399819 21.6461 42.9495
RightForeArm  6.10507 50.3556 13.1491
RightHand  -4.37091 11.847 -29.268
LeftUpLeg  -22.1777 -5.34192 2.3535
LeftLeg  50.3302 7.12482 9.58235
LeftFoot  -11.8788 0.107646 6.94851
LeftToes  1.06246e-005 4.65855e-005 -8.18502e-006
410
root  62.2448 36.1041 -13.5423 50.8222 -81.6318 -62.7845
RightUpLeg  -14.157 -22.6178 1.14288
RightLeg  66.6097 0.375879 -0.0787211
RightFoot  -11.4926 -0.0489904 17.9975
RightToes  0.000482159 0.542163 -0.142577
Spine  40.6718 0.567277 1.8578
Spine1  -4.55862 4.04404 -18.783
HEad  -38.2178 -0.0819373 0.224867
LeftShoulder1  9.85844 -15.6022 -44.9608
LeftArm  -0.153328 -9.82175 -26.75
LeftForeArm  173.032 -79.6085 -128.625
LeftHand  -0.25398 0.0180481 5.50724
RightShoulder  7.924 13.443 40.5766
RightArm  -2.56464 17.9681 39.259
RightForeArm  9.53217 56.4209 16.3335
RightHand  -4.18737 11.3527 -28.8872
LeftUpLeg  -24.9748 -6.45993 0.434712
LeftLeg  45.1224 5.38611 6.15954
LeftFoot  -10.9313 0.0415455 7.68431
LeftToes  1.06246e-005 4.65855e-005 -8.18502e-006
